<svg width="22" height="33" viewBox="0 0 22 33" fill="none" xmlns="http://www.w3.org/2000/svg">
<path d="M19.567 14.9417C12.2017 3.6124 11.1194 0.387933 11.0059 0C11.0059 0 9.79865 3.6124 2.43301 14.9417C2.43301 14.9417 -1.35944 20.0127 0.525398 25.5655C2.2244 30.5723 6.79143 32.9952 10.9941 33C10.9941 33 10.996 32.9996 11.0055 33C13.107 32.9978 15.2993 32.391 17.179 31.1586C19.0587 29.9262 20.6251 28.0691 21.4746 25.5655C23.3594 20.0127 19.567 14.9417 19.567 14.9417ZM11.0474 30.6937C11.0327 30.694 11.018 30.694 11.0033 30.694H10.9963C9.26574 30.6922 7.52046 30.1719 6.08259 29.2292C5.3194 28.7291 4.6506 28.1171 4.09455 27.4102C3.49663 26.6501 3.02799 25.7781 2.70222 24.8178C2.10467 23.0571 2.16784 21.1207 2.8899 19.0634C3.45146 17.4625 4.22309 16.3753 4.27782 16.2987L4.32667 16.2345L4.36082 16.1795C5.00245 15.1925 5.61469 14.2377 6.19682 13.3162C5.22244 15.4433 3.25386 20.6488 5.75388 23.5576C7.19469 25.2336 9.66607 25.8298 11.7261 26.5346C14.0036 27.3137 13.4545 30.679 11.0474 30.6937Z" fill="#00A1ED"/>
</svg>
