<svg width="24" height="22" viewBox="0 0 24 22" fill="none" xmlns="http://www.w3.org/2000/svg">
<path d="M13.08 7.98999L17.77 9.54999V11.29H19.65V8.86999C19.65 8.46999 19.39 8.10999 19.01 7.97999L13.08 5.99999V1.35999C13.08 1.30999 13.07 1.24999 13.05 1.19999C12.96 0.959993 12.69 0.829993 12.45 0.919993L3.37001 4.21999C3.00001 4.35999 2.75001 4.70999 2.75001 5.09999V17.58H0.880005V19.46H13.58V17.58H13.08V7.98999ZM11.2 17.58H4.63001V5.75999L11.2 3.36999V17.58Z" fill="#303030"/>
<path d="M22.13 15.8001L23.12 15.2301L22.12 13.5001L21.13 14.0701C20.74 13.7001 20.26 13.4201 19.73 13.2601V12.1101H17.73V13.2601C17.2 13.4201 16.72 13.6901 16.33 14.0701L15.34 13.5001L14.34 15.2301L15.33 15.8001C15.2 16.3301 15.2 16.8901 15.33 17.4201L14.34 17.9901L15.34 19.7201L16.33 19.1501C16.73 19.5301 17.21 19.8101 17.73 19.9601V21.1101H19.73V19.9601C20.26 19.8001 20.74 19.5301 21.13 19.1501L22.12 19.7201L23.12 17.9901L22.13 17.4201C22.26 16.8901 22.26 16.3301 22.13 15.8001ZM18.72 18.1101C17.89 18.1101 17.22 17.4401 17.22 16.6101C17.22 15.7801 17.89 15.1101 18.72 15.1101C19.55 15.1101 20.22 15.7801 20.22 16.6101C20.22 17.4401 19.55 18.1101 18.72 18.1101Z" fill="#303030"/>
</svg>
