<svg width="24" height="24" viewBox="0 0 24 24" fill="none" xmlns="http://www.w3.org/2000/svg">
<path d="M18.36 6.64002L12 0.27002L5.64001 6.64002C2.13001 10.15 2.13001 15.85 5.64001 19.37C9.15001 22.88 14.85 22.88 18.37 19.37C21.89 15.86 21.88 10.15 18.36 6.64002ZM16.95 17.95C14.22 20.68 9.78001 20.68 7.05001 17.95C4.32001 15.22 4.32001 10.78 7.05001 8.05002L12 3.10002L16.95 8.05002C19.68 10.78 19.68 15.22 16.95 17.95Z" fill="#303030"/>
<path d="M15.4 10.2201L14.41 10.7901C14.02 10.4201 13.54 10.1401 13.01 9.98009V8.84009H11.01V9.99009C10.48 10.1501 10 10.4201 9.61 10.8001L8.62 10.2301L7.62 11.9601L8.61 12.5301C8.48 13.0601 8.48 13.6201 8.61 14.1501L7.62 14.7201L8.62 16.4501L9.61 15.8801C10.01 16.2601 10.49 16.5401 11.01 16.6901V17.8401H13.01V16.6901C13.54 16.5301 14.02 16.2601 14.41 15.8801L15.4 16.4501L16.4 14.7201L15.41 14.1501C15.54 13.6201 15.54 13.0601 15.41 12.5301L16.4 11.9601L15.4 10.2201ZM12 14.8401C11.17 14.8401 10.5 14.1701 10.5 13.3401C10.5 12.5101 11.17 11.8401 12 11.8401C12.83 11.8401 13.5 12.5101 13.5 13.3401C13.5 14.1701 12.83 14.8401 12 14.8401Z" fill="#303030"/>
</svg>
